<mxfile host="app.diagrams.net" modified="2022-06-01T07:30:18.994Z" agent="5.0 (X11; Linux x86_64) AppleWebKit/537.36 (KHTML, like Gecko) Chrome/102.0.0.0 Safari/537.36" etag="C-E-yL2qGmFWKq5edmVv" version="18.2.0" type="github">
  <diagram id="hs4czZ4O0DfGnKWhVA0j" name="Page-1">
    <mxGraphModel dx="2062" dy="1158" grid="1" gridSize="10" guides="1" tooltips="1" connect="1" arrows="1" fold="1" page="1" pageScale="1" pageWidth="1600" pageHeight="1200" math="0" shadow="0">
      <root>
        <mxCell id="0" />
        <mxCell id="1" parent="0" />
        <mxCell id="RqtZ7TRINsWieWZixmro-3" value="" style="rounded=0;whiteSpace=wrap;html=1;glass=0;gradientColor=none;dashed=1;fillColor=none;" vertex="1" parent="1">
          <mxGeometry x="400" y="280" width="600" height="720" as="geometry" />
        </mxCell>
        <mxCell id="RqtZ7TRINsWieWZixmro-4" value="" style="rounded=0;whiteSpace=wrap;html=1;glass=0;fillColor=none;gradientColor=none;" vertex="1" parent="1">
          <mxGeometry x="440" y="840" width="520" height="120" as="geometry" />
        </mxCell>
        <mxCell id="RqtZ7TRINsWieWZixmro-6" value="Master node" style="rounded=0;whiteSpace=wrap;html=1;glass=0;fillColor=none;gradientColor=none;" vertex="1" parent="1">
          <mxGeometry x="480" y="870" width="120" height="60" as="geometry" />
        </mxCell>
        <mxCell id="RqtZ7TRINsWieWZixmro-7" value="Master node&lt;br&gt;管理面板" style="rounded=0;whiteSpace=wrap;html=1;glass=0;fillColor=none;gradientColor=none;" vertex="1" parent="1">
          <mxGeometry x="640" y="870" width="120" height="60" as="geometry" />
        </mxCell>
        <mxCell id="RqtZ7TRINsWieWZixmro-11" value="" style="rounded=0;whiteSpace=wrap;html=1;glass=0;fillColor=none;gradientColor=none;" vertex="1" parent="1">
          <mxGeometry x="800" y="870" width="120" height="60" as="geometry" />
        </mxCell>
        <mxCell id="RqtZ7TRINsWieWZixmro-12" value="" style="rounded=0;whiteSpace=wrap;html=1;glass=0;fillColor=none;gradientColor=none;dashed=1;" vertex="1" parent="1">
          <mxGeometry x="1040" y="380" width="200" height="360" as="geometry" />
        </mxCell>
        <mxCell id="RqtZ7TRINsWieWZixmro-13" value="" style="rounded=0;whiteSpace=wrap;html=1;glass=0;fillColor=none;gradientColor=none;dashed=1;" vertex="1" parent="1">
          <mxGeometry x="440" y="120" width="520" height="120" as="geometry" />
        </mxCell>
        <mxCell id="RqtZ7TRINsWieWZixmro-14" value="" style="rounded=0;whiteSpace=wrap;html=1;glass=0;fillColor=none;gradientColor=none;" vertex="1" parent="1">
          <mxGeometry x="440" y="320" width="160" height="480" as="geometry" />
        </mxCell>
        <mxCell id="RqtZ7TRINsWieWZixmro-15" value="" style="rounded=0;whiteSpace=wrap;html=1;glass=0;fillColor=none;gradientColor=none;" vertex="1" parent="1">
          <mxGeometry x="640" y="320" width="320" height="480" as="geometry" />
        </mxCell>
        <mxCell id="RqtZ7TRINsWieWZixmro-16" value="邮客行、邮你来办" style="rounded=0;whiteSpace=wrap;html=1;glass=0;fillColor=none;gradientColor=none;" vertex="1" parent="1">
          <mxGeometry x="1080" y="410" width="120" height="60" as="geometry" />
        </mxCell>
        <mxCell id="RqtZ7TRINsWieWZixmro-17" value="小程序" style="rounded=0;whiteSpace=wrap;html=1;glass=0;fillColor=none;gradientColor=none;" vertex="1" parent="1">
          <mxGeometry x="1080" y="490" width="120" height="60" as="geometry" />
        </mxCell>
        <mxCell id="RqtZ7TRINsWieWZixmro-18" value="测试数据库" style="rounded=0;whiteSpace=wrap;html=1;glass=0;fillColor=none;gradientColor=none;" vertex="1" parent="1">
          <mxGeometry x="1080" y="570" width="120" height="60" as="geometry" />
        </mxCell>
        <mxCell id="RqtZ7TRINsWieWZixmro-19" value="监控数据库" style="rounded=0;whiteSpace=wrap;html=1;glass=0;fillColor=none;gradientColor=none;" vertex="1" parent="1">
          <mxGeometry x="1080" y="650" width="120" height="60" as="geometry" />
        </mxCell>
        <mxCell id="RqtZ7TRINsWieWZixmro-20" value="Gitlab&lt;br&gt;CI/CD" style="rounded=0;whiteSpace=wrap;html=1;glass=0;fontSize=15;fillColor=none;gradientColor=none;" vertex="1" parent="1">
          <mxGeometry x="460" y="350" width="120" height="60" as="geometry" />
        </mxCell>
        <mxCell id="RqtZ7TRINsWieWZixmro-21" value="yapi&lt;br&gt;测试工具" style="rounded=0;whiteSpace=wrap;html=1;glass=0;fontSize=15;fillColor=none;gradientColor=none;" vertex="1" parent="1">
          <mxGeometry x="460" y="710" width="120" height="60" as="geometry" />
        </mxCell>
        <mxCell id="RqtZ7TRINsWieWZixmro-22" value="监控&lt;br&gt;日志" style="rounded=0;whiteSpace=wrap;html=1;glass=0;fontSize=15;fillColor=none;gradientColor=none;" vertex="1" parent="1">
          <mxGeometry x="460" y="590" width="120" height="60" as="geometry" />
        </mxCell>
        <mxCell id="RqtZ7TRINsWieWZixmro-24" value="邮客行&lt;br&gt;邮你来办" style="rounded=0;whiteSpace=wrap;html=1;glass=0;fontSize=15;fillColor=none;gradientColor=none;" vertex="1" parent="1">
          <mxGeometry x="740" y="350" width="120" height="60" as="geometry" />
        </mxCell>
        <mxCell id="RqtZ7TRINsWieWZixmro-25" value="健康打卡&lt;br&gt;健康打卡定时" style="rounded=0;whiteSpace=wrap;html=1;glass=0;fontSize=15;fillColor=none;gradientColor=none;" vertex="1" parent="1">
          <mxGeometry x="740" y="430" width="120" height="60" as="geometry" />
        </mxCell>
        <mxCell id="RqtZ7TRINsWieWZixmro-26" value="体育部" style="rounded=0;whiteSpace=wrap;html=1;glass=0;fontSize=15;fillColor=none;gradientColor=none;" vertex="1" parent="1">
          <mxGeometry x="740" y="510" width="120" height="60" as="geometry" />
        </mxCell>
        <mxCell id="RqtZ7TRINsWieWZixmro-27" value="小程序" style="rounded=0;whiteSpace=wrap;html=1;glass=0;fontSize=15;fillColor=none;gradientColor=none;" vertex="1" parent="1">
          <mxGeometry x="740" y="590" width="120" height="60" as="geometry" />
        </mxCell>
        <mxCell id="RqtZ7TRINsWieWZixmro-28" value="未来的业务" style="rounded=0;whiteSpace=wrap;html=1;glass=0;fontSize=15;fillColor=none;gradientColor=none;" vertex="1" parent="1">
          <mxGeometry x="740" y="670" width="120" height="60" as="geometry" />
        </mxCell>
        <mxCell id="RqtZ7TRINsWieWZixmro-30" value="" style="endArrow=none;dashed=1;html=1;dashPattern=1 3;strokeWidth=2;rounded=0;fontSize=15;" edge="1" parent="1">
          <mxGeometry width="50" height="50" relative="1" as="geometry">
            <mxPoint x="740" y="760" as="sourcePoint" />
            <mxPoint x="860" y="760" as="targetPoint" />
          </mxGeometry>
        </mxCell>
        <mxCell id="RqtZ7TRINsWieWZixmro-31" value="容器仓库" style="rounded=0;whiteSpace=wrap;html=1;glass=0;fontSize=15;fillColor=none;gradientColor=none;" vertex="1" parent="1">
          <mxGeometry x="460" y="470" width="120" height="60" as="geometry" />
        </mxCell>
        <mxCell id="RqtZ7TRINsWieWZixmro-32" value="nginx ingress" style="rounded=0;whiteSpace=wrap;html=1;glass=0;fontSize=15;fillColor=none;gradientColor=none;" vertex="1" parent="1">
          <mxGeometry x="740" y="150" width="120" height="60" as="geometry" />
        </mxCell>
        <mxCell id="RqtZ7TRINsWieWZixmro-35" value="nginx ingress" style="rounded=0;whiteSpace=wrap;html=1;glass=0;fontSize=15;fillColor=none;gradientColor=none;" vertex="1" parent="1">
          <mxGeometry x="460" y="150" width="120" height="60" as="geometry" />
        </mxCell>
        <mxCell id="RqtZ7TRINsWieWZixmro-36" value="&lt;font style=&quot;font-size: 20px;&quot;&gt;数据库&lt;/font&gt;" style="text;html=1;resizable=0;autosize=1;align=center;verticalAlign=middle;points=[];fillColor=none;strokeColor=none;rounded=0;glass=0;dashed=1;fontSize=15;" vertex="1" parent="1">
          <mxGeometry x="1100" y="380" width="80" height="30" as="geometry" />
        </mxCell>
        <mxCell id="RqtZ7TRINsWieWZixmro-37" value="&lt;font style=&quot;font-size: 20px;&quot;&gt;Kubernetes集群&lt;/font&gt;" style="text;html=1;resizable=0;autosize=1;align=center;verticalAlign=middle;points=[];fillColor=none;strokeColor=none;rounded=0;glass=0;dashed=1;fontSize=15;" vertex="1" parent="1">
          <mxGeometry x="620" y="280" width="160" height="30" as="geometry" />
        </mxCell>
        <mxCell id="RqtZ7TRINsWieWZixmro-38" value="&lt;font style=&quot;font-size: 20px;&quot;&gt;入口&lt;/font&gt;" style="text;html=1;resizable=0;autosize=1;align=center;verticalAlign=middle;points=[];fillColor=none;strokeColor=none;rounded=0;glass=0;dashed=1;fontSize=15;" vertex="1" parent="1">
          <mxGeometry x="650" y="120" width="60" height="30" as="geometry" />
        </mxCell>
        <mxCell id="RqtZ7TRINsWieWZixmro-39" value="&lt;font style=&quot;font-size: 20px;&quot;&gt;控制平面&lt;/font&gt;" style="text;html=1;resizable=0;autosize=1;align=center;verticalAlign=middle;points=[];fillColor=none;strokeColor=none;rounded=0;glass=0;dashed=1;fontSize=15;" vertex="1" parent="1">
          <mxGeometry x="650" y="840" width="100" height="30" as="geometry" />
        </mxCell>
        <mxCell id="RqtZ7TRINsWieWZixmro-42" style="edgeStyle=orthogonalEdgeStyle;rounded=0;orthogonalLoop=1;jettySize=auto;html=1;exitX=0.5;exitY=1;exitDx=0;exitDy=0;fontSize=20;" edge="1" parent="1" source="RqtZ7TRINsWieWZixmro-12" target="RqtZ7TRINsWieWZixmro-12">
          <mxGeometry relative="1" as="geometry" />
        </mxCell>
        <mxCell id="RqtZ7TRINsWieWZixmro-43" style="edgeStyle=orthogonalEdgeStyle;rounded=0;orthogonalLoop=1;jettySize=auto;html=1;exitX=0.5;exitY=1;exitDx=0;exitDy=0;fontSize=20;" edge="1" parent="1" source="RqtZ7TRINsWieWZixmro-12" target="RqtZ7TRINsWieWZixmro-12">
          <mxGeometry relative="1" as="geometry" />
        </mxCell>
        <mxCell id="RqtZ7TRINsWieWZixmro-45" value="" style="shape=flexArrow;endArrow=classic;startArrow=classic;html=1;rounded=0;fontSize=20;entryX=0.5;entryY=1;entryDx=0;entryDy=0;" edge="1" parent="1" target="RqtZ7TRINsWieWZixmro-35">
          <mxGeometry width="100" height="100" relative="1" as="geometry">
            <mxPoint x="520" y="320" as="sourcePoint" />
            <mxPoint x="330" y="260" as="targetPoint" />
          </mxGeometry>
        </mxCell>
        <mxCell id="RqtZ7TRINsWieWZixmro-46" value="" style="shape=flexArrow;endArrow=classic;startArrow=classic;html=1;rounded=0;fontSize=20;entryX=0.5;entryY=1;entryDx=0;entryDy=0;" edge="1" parent="1" target="RqtZ7TRINsWieWZixmro-32">
          <mxGeometry width="100" height="100" relative="1" as="geometry">
            <mxPoint x="800" y="320" as="sourcePoint" />
            <mxPoint x="330" y="310" as="targetPoint" />
          </mxGeometry>
        </mxCell>
        <mxCell id="RqtZ7TRINsWieWZixmro-47" value="" style="shape=flexArrow;endArrow=classic;startArrow=classic;html=1;rounded=0;fontSize=20;exitX=1;exitY=0.5;exitDx=0;exitDy=0;entryX=0;entryY=0.5;entryDx=0;entryDy=0;" edge="1" parent="1" source="RqtZ7TRINsWieWZixmro-15" target="RqtZ7TRINsWieWZixmro-12">
          <mxGeometry width="100" height="100" relative="1" as="geometry">
            <mxPoint x="890" y="600" as="sourcePoint" />
            <mxPoint x="1040" y="540" as="targetPoint" />
          </mxGeometry>
        </mxCell>
      </root>
    </mxGraphModel>
  </diagram>
</mxfile>
